<svg width="50" height="50" viewBox="0 0 50 50" fill="none" xmlns="http://www.w3.org/2000/svg">
<g clip-path="url(#clip0_1_224)">
<path fill-rule="evenodd" clip-rule="evenodd" d="M45.3885 14.6162L43.7545 16.2502C40.214 13.1643 35.6745 11.4383 30.9545 11.4383C27.7766 11.4383 24.6004 12.2553 21.877 13.7072L28.7757 6.80851C29.3204 7.17106 29.9553 7.35319 30.5919 7.35319C31.4991 7.35319 32.4081 6.99064 33.1332 6.26383C34.5851 4.81191 34.5851 2.54128 33.1332 1.08936C32.4064 0.362553 31.4991 0 30.5919 0C29.6847 0 28.7757 0.362553 28.0506 1.08936C26.8711 2.36085 26.6889 4.17532 27.506 5.53702L18.7911 14.2519L17.157 12.6179L12.7094 17.0655L14.3434 18.6996L5.44638 27.5966C4.9017 27.234 4.26681 27.0519 3.63021 27.0519C2.72298 27.0519 1.81404 27.4145 1.08894 28.1413C-0.362979 29.5932 -0.362979 31.8638 1.08894 33.3157C1.81574 33.9506 2.72298 34.3149 3.63021 34.3149C4.53745 34.3149 5.44638 33.9523 6.17149 33.2255C7.35106 32.046 7.53319 30.2298 6.71617 28.7779L13.6149 21.8791C9.98426 28.8698 10.8013 37.5847 16.1562 43.7566L14.5221 45.4809L19.0617 49.9285L23.5094 45.4809L19.0617 41.0332L17.5179 42.577C12.2532 36.4034 11.9809 27.5081 16.4285 20.9719L17.1553 21.6987L21.6949 17.2511L20.8779 16.5243C23.7834 14.4357 27.3238 13.3464 30.9545 13.3464C35.2217 13.3464 39.2149 14.8902 42.483 17.6136L40.8489 19.1574L45.3885 23.6051L49.8362 19.1574L45.3885 14.6179V14.6162ZM20.9681 45.4808L19.0617 47.3872L17.1553 45.4808L19.0617 43.5745L20.9681 45.4808ZM29.3204 2.45106C29.683 2.08851 30.1374 1.90638 30.5919 1.90638C31.0464 1.90638 31.4991 2.08851 31.8634 2.45106C32.5902 3.17787 32.5902 4.26723 31.8634 4.99234C31.5009 5.35489 31.0464 5.53702 30.5919 5.53702C30.1374 5.53702 29.6847 5.35489 29.3204 4.99234C28.5936 4.35745 28.5936 3.17617 29.3204 2.45106ZM4.9 31.954C4.53745 32.3166 4.08298 32.4987 3.62851 32.4987C3.17404 32.4987 2.72128 32.3166 2.35702 31.954C1.99447 31.6817 1.81234 31.2272 1.81234 30.6826C1.81234 30.2281 1.99447 29.7753 2.35702 29.4111C2.71957 29.0468 3.17404 28.8664 3.62851 28.8664C4.08298 28.8664 4.53574 29.0485 4.9 29.4111C5.62681 30.1379 5.62681 31.3174 4.9 31.9523V31.954ZM17.0651 19.154L15.1587 17.2477L17.0651 15.3413L18.9715 17.2477L17.0651 19.154ZM45.3885 21.0604L43.4821 19.154L45.3885 17.2477L47.2949 19.154L45.3885 21.0604Z" fill="#333333"/>
</g>
<defs>
<clipPath id="clip0_1_224">
<rect width="50" height="50" fill="white"/>
</clipPath>
</defs>
</svg>
